{"title":"The Playboys 1992 HDRip XviD titler","uid":8528740,"size":968037812,"categoryP":"video","categoryS":"movies","magnet":"?xt=urn:btih:e2470ac295d8b8d2701aad0f488d69c7c0561228&amp;dn=The+Playboys+1992+HDRip+XviD+titler&amp;tr=udp%3A%2F%2Ftracker.openbittorrent.com%3A80&amp;tr=udp%3A%2F%2Fopen.demonii.com%3A1337&amp;tr=udp%3A%2F%2Ftracker.coppersurfer.tk%3A6969&amp;tr=udp%3A%2F%2Fexodus.desync.com%3A6969","seeders":2,"leechers":0,"uploader":"movieZ.freak","files":4,"time":1370048323,"description":"SOURCE: HDTV x264 25fps (4.8GB)\n &lt;a href=&quot;\nhttp://www.imdb.com/title/tt0105150/&quot; rel=&quot;nofollow&quot; target=&quot;_NEW&quot;&gt;\nhttp://www.imdb.com/title/tt0105150/&lt;/a&gt;\n &lt;a href=&quot;\nhttp://www.rottentomatoes.com/m/playboys/&quot; rel=&quot;nofollow&quot; target=&quot;_NEW&quot;&gt;\nhttp://www.rottentomatoes.com/m/playboys/&lt;/a&gt;\n\n\n- SAMPLE: Yes\n\n- SUBTITLES: No\n\n- LANGUAGE: English\n\n\nCOVERS\n----------\n &lt;a href=&quot;\nhttp://someimage.com/SBT4PHE&quot; rel=&quot;nofollow&quot; target=&quot;_NEW&quot;&gt;\nhttp://someimage.com/SBT4PHE&lt;/a&gt;\n &lt;a href=&quot;\nhttp://someimage.com/Zg3J19O&quot; rel=&quot;nofollow&quot; target=&quot;_NEW&quot;&gt;\nhttp://someimage.com/Zg3J19O&lt;/a&gt;\n\n\nDIRECTOR: Gillies MacKinnon\n\n\nCAST:\n--------\nAlbert Finney, Aidan Quinn, Robin Wright, Adrian Dunbar, Milo O'Shea, Niamh\nCusack, Ian McElhinney\n\nPLOT:\n-------\nA young woman, Tara Maguire (Robin Wright) scandalizes her provincial Irish village in the 1950s by having a baby out of a wedlock, and refusing to name the father. She has a rare beauty and every man in town desires her, especially Sergeant Hegarty (Albert Finney). The arrival of a dramatic troupe stirs things up even more, especially when she falls in love with one of the\n&quot;Playboys&quot;, Tom Casey (Aidan Quinn).\n\n\nGeneral\n-----------\nFormat : AVI\nFormat/Info : Audio Video Interleave\nFile size : 900 MiB\nDuration : 1h 44mn\nOverall bit rate : 1204 Kbps\nWriting application : VirtualDubMod 1.5.10.3\nWriting library : VirtualDubMod build 2550\n\n\nVideo\n---------\n\nFormat : MPEG-4 Visual\nFormat profile : Advanced Simple@L5\nFormat settings, BVOP : 1\nFormat settings, QPel : No\nFormat settings, GMC : No warppoints\nFormat settings, Matrix : Custom\nCodec ID : XVID\nCodec ID/Hint : XviD\nDuration : 1h 44mn\nBit rate : 1069 Kbps\nWidth : 624 pixels\nHeight : 352 pixels\nDisplay aspect ratio : 16:9\nFrame rate : 25.000 fps\nColor space : YUV\nChroma subsampling : 4:2:0\nBit depth : 8 bits\nScan type : Progressive\nCompression mode : Lossy\nBits/(Pixel*Frame) : 0.195\nStream size : 799 MiB (89%)\nWriting library : XviD 64\n\nAudio\n-----------\nFormat : MPEG Audio\nFormat version : Version 1\nFormat profile : Layer 3\nMode : Joint stereo\nMode extension : MS Stereo\nCodec ID : 55\nCodec ID/Hint : MP3\nDuration : 1h 44mn\nBit rate mode : Constant\nBit rate : 128 Kbps\nChannel(s) : 2 channels\nSampling rate : 48.0 KHz\nCompression mode : Lossy\nStream size : 95.7 MiB (11%)\nAlignment : Aligned on interleaves\nInterleave, duration : 80 ms (2.00 video frames)\nInterleave, preload duration : 504 ms\nWriting library : LAME3.99.5\nLanguage : English","torrent":{"xt":"urn:btih:e2470ac295d8b8d2701aad0f488d69c7c0561228","amp;dn":"The+Playboys+1992+HDRip+XviD+titler","amp;tr":["udp%3A%2F%2Ftracker.openbittorrent.com%3A80","udp%3A%2F%2Fopen.demonii.com%3A1337","udp%3A%2F%2Ftracker.coppersurfer.tk%3A6969","udp%3A%2F%2Fexodus.desync.com%3A6969"],"infoHash":"e2470ac295d8b8d2701aad0f488d69c7c0561228","infoHashBuffer":{"type":"Buffer","data":[226,71,10,194,149,216,184,210,112,26,173,15,72,141,105,199,192,86,18,40]},"announce":[],"urlList":[]}}